# xmcd
# 
# Track frame offsets:
#     150
#     18483
#     41336
#     61295
#     86625
#     113363
#     127970
#     153140
#     168940
#     195037
#     214323
#     235743
# 
# Disc length: 3708
# 
# Revision: 0
# Processed by: cddbd v1.5.2PL0 Copyright (c) Steve Scherf et al.
# Submitted via: fre:ac v1.0.27
# 
DISCID=860e7a0c
DTITLE=Geoffrey Armes - Elemental Red
DYEAR=2004
DGENRE=Country
TTITLE0=Off The Island
TTITLE1=Gypsy Hill
TTITLE2=The Road
TTITLE3=Hidden Child
TTITLE4=Wind
TTITLE5=Only You
TTITLE6=Man In The Moon
TTITLE7=This Work
TTITLE8=Sea Lanes
TTITLE9=Mountain
TTITLE10=Country Heart
TTITLE11=Music Flows
EXTD=
EXTT0=
EXTT1=
EXTT2=
EXTT3=
EXTT4=
EXTT5=
EXTT6=
EXTT7=
EXTT8=
EXTT9=
EXTT10=
EXTT11=
PLAYORDER=
